<svg id="Layer_1" data-name="Layer 1" xmlns="http://www.w3.org/2000/svg" viewBox="0 0 190.03 70"><defs><style>.cls-1{fill:#fff;}</style></defs><title>Aion Logo</title><path class="cls-1" d="M128.32,26.31c4.84,9.47.92,20.73-9,25.79S98,53.74,93.18,44.27s-.87-20.64,9-25.7,21.27-1.74,26.12,7.74M98.86,41.37a13.35,13.35,0,0,0,18,5.69,13.19,13.19,0,1,0-18-5.69"/><path class="cls-1" d="M144.2,45a35.36,35.36,0,0,1-28.39,25l-1-6.15a29.12,29.12,0,0,0,23.38-20.59c.1-.33.18-.66.27-1l6,1.53q-.15.59-.32,1.18"/><path class="cls-1" d="M145.59,35.82l-6.22-.12a28.94,28.94,0,0,0-9.91-22.36l4.1-4.68a35.15,35.15,0,0,1,12,27.15"/><path class="cls-1" d="M102.57,7.25a28.84,28.84,0,0,0-20,19.86l-6-1.73A35,35,0,0,1,100.89,1.26Z"/><path class="cls-1" d="M10.1,45.67l-3.56,8.4H0L16.44,16.84h6.43L39.15,54.07h-6.7l-3.56-8.4Zm9.36-22.13-7,16.54h14Z"/><rect class="cls-1" x="54.8" y="16.84" width="6.28" height="37.23"/><polygon class="cls-1" points="183.86 54.07 164.03 27.37 164.03 54.07 157.75 54.07 157.75 16.84 163.92 16.84 183.86 43.59 183.86 16.84 190.03 16.84 190.03 54.07 183.86 54.07"/><path class="cls-1" d="M105.14,70a35.48,35.48,0,0,1-4.56-1A35.1,35.1,0,0,1,75.17,36.2L81.39,36a28.9,28.9,0,0,0,20.92,27,29.65,29.65,0,0,0,3.76.83Z"/><path class="cls-1" d="M125.84,3.53l-2.72,5.6a29.25,29.25,0,0,0-11.3-2.91L112.12,0a35.53,35.53,0,0,1,13.72,3.53"/></svg>