<?xml version="1.0" encoding="utf-8"?>
<!-- Generator: Adobe Illustrator 16.0.0, SVG Export Plug-In . SVG Version: 6.00 Build 0)  -->
<!DOCTYPE svg PUBLIC "-//W3C//DTD SVG 1.1//EN" "http://www.w3.org/Graphics/SVG/1.1/DTD/svg11.dtd">
<svg version="1.1" id="Layer_1" xmlns="http://www.w3.org/2000/svg" xmlns:xlink="http://www.w3.org/1999/xlink" x="0px" y="0px"
	 width="110.019px" height="110.607px" viewBox="0 0 110.019 110.607" enable-background="new 0 0 110.019 110.607"
	 xml:space="preserve">
<path fill="#004651" d="M79.929,14.158c-7.566-4.647-16.283-7.104-25.213-7.104c-8.2,0-16.297,2.093-23.415,6.052l-3.429-6.165
	C36.035,2.4,45.318,0,54.716,0c10.233,0,20.229,2.817,28.907,8.147L79.929,14.158z"/>
<path fill="#00BFEC" d="M101.777,42.204c-1.854-6.678-5.055-12.779-9.516-18.133l4.518-3.763
	c4.996,5.999,8.584,12.837,10.662,20.324L101.777,42.204z"/>
<path fill="#004651" d="M90.439,97.523L85.88,92.14c10.857-9.195,17.086-22.622,17.086-36.836h7.053
	C110.019,71.596,102.882,86.984,90.439,97.523z"/>
<path fill="#004651" d="M54.716,110.607c-12.83,0-25.333-4.492-35.206-12.651l4.494-5.438c8.611,7.116,19.519,11.035,30.712,11.035
	c7.827,0,15.292-1.814,22.186-5.391l3.248,6.262C72.353,108.469,63.558,110.607,54.716,110.607z"/>
<path fill="#00BFEC" d="M9.002,85.382C3.112,76.449,0,66.047,0,55.304C0,40.347,5.922,26.38,16.674,15.977l4.088,4.226
	C11.164,29.487,5.878,41.954,5.878,55.304c0,9.59,2.777,18.873,8.031,26.843L9.002,85.382z"/>
<path fill="#004651" d="M54.716,91.31c-19.854,0-36.006-16.152-36.006-36.006s16.152-36.006,36.006-36.006
	c19.856,0,36.006,16.152,36.006,36.006S74.572,91.31,54.716,91.31z M54.716,26.352c-15.964,0-28.952,12.988-28.952,28.952
	c0,15.964,12.988,28.953,28.952,28.953c15.965,0,28.954-12.988,28.954-28.953C83.669,39.34,70.681,26.352,54.716,26.352z"/>
<g>
</g>
<g>
</g>
<g>
</g>
<g>
</g>
<g>
</g>
<g>
</g>
<g>
</g>
<g>
</g>
<g>
</g>
<g>
</g>
<g>
</g>
<g>
</g>
<g>
</g>
<g>
</g>
<g>
</g>
</svg>
