<?xml version="1.0" encoding="UTF-8" standalone="no"?>
<svg
   xmlns:dc="http://purl.org/dc/elements/1.1/"
   xmlns:cc="http://creativecommons.org/ns#"
   xmlns:rdf="http://www.w3.org/1999/02/22-rdf-syntax-ns#"
   xmlns:svg="http://www.w3.org/2000/svg"
   xmlns="http://www.w3.org/2000/svg"
   xmlns:sodipodi="http://sodipodi.sourceforge.net/DTD/sodipodi-0.dtd"
   xmlns:inkscape="http://www.inkscape.org/namespaces/inkscape"
   width="252.707pt"
   height="239.518pt"
   viewBox="0 0 252.707 239.518"
   version="1.2"
   id="svg3726"
   sodipodi:docname="Aion Logo Coin.svg"
   inkscape:version="0.92.3 (2405546, 2018-03-11)">
  <metadata
     id="metadata3732">
    <rdf:RDF>
      <cc:Work
         rdf:about="">
        <dc:format>image/svg+xml</dc:format>
        <dc:type
           rdf:resource="http://purl.org/dc/dcmitype/StillImage" />
        <dc:title></dc:title>
      </cc:Work>
    </rdf:RDF>
  </metadata>
  <defs
     id="defs3730" />
  <sodipodi:namedview
     pagecolor="#ffffff"
     bordercolor="#666666"
     borderopacity="1"
     objecttolerance="10"
     gridtolerance="10"
     guidetolerance="10"
     inkscape:pageopacity="0"
     inkscape:pageshadow="2"
     inkscape:window-width="1920"
     inkscape:window-height="1001"
     id="namedview3728"
     showgrid="false"
     inkscape:zoom="2.5300812"
     inkscape:cx="168.47133"
     inkscape:cy="159.67867"
     inkscape:window-x="-9"
     inkscape:window-y="-9"
     inkscape:window-maximized="1"
     inkscape:current-layer="svg3726" />
  <g
     id="surface3958">
    <path
       style=" stroke:none;fill-rule:nonzero;fill:rgb(25.898743%,12.89978%,79.998779%);fill-opacity:1;"
       d="M 95.195313 140.324219 C 104.824219 157.261719 126.460938 162.699219 143.15625 153.207031 C 159.851563 143.714844 165.878906 122.546875 156.25 105.609375 C 146.617188 88.671875 125.484375 83.269531 108.789063 92.761719 C 91.972656 102.324219 85.5625 123.386719 95.195313 140.324219 M 170.992188 97.226563 C 184.851563 121.597656 175.847656 151.714844 150.378906 166.195313 C 124.910156 180.675781 94.425781 173.011719 80.570313 148.636719 C 66.644531 124.144531 75.855469 94.394531 101.324219 79.914063 C 126.792969 65.433594 157.136719 72.855469 170.992188 97.226563 "
       id="path3713" />
    <path
       style=" stroke:none;fill-rule:nonzero;fill:rgb(25.898743%,12.89978%,79.998779%);fill-opacity:1;"
       d="M 214.988281 144.5 C 206.546875 179.390625 178.351563 206.539063 143.15625 213.664063 L 139.902344 197.59375 C 168.878906 191.722656 192.097656 169.371094 199.046875 140.644531 C 199.261719 139.769531 199.449219 138.898438 199.632813 138.023438 L 215.691406 141.355469 C 215.476563 142.40625 215.242188 143.453125 214.988281 144.5 "
       id="path3715" />
    <path
       style=" stroke:none;fill-rule:nonzero;fill:rgb(25.898743%,12.89978%,79.998779%);fill-opacity:1;"
       d="M 217.578125 120.238281 L 201.183594 120.660156 C 200.605469 98.117188 190.140625 77.085938 172.476563 62.957031 L 182.722656 50.152344 C 204.167969 67.304688 216.875 92.851563 217.578125 120.238281 "
       id="path3717" />
    <path
       style=" stroke:none;fill-rule:nonzero;fill:rgb(25.898743%,12.89978%,79.998779%);fill-opacity:1;"
       d="M 100.964844 50.066406 C 75.640625 58.402344 56.78125 78.828125 50.519531 104.707031 L 34.578125 100.851563 C 42.183594 69.417969 65.085938 44.609375 95.835938 34.488281 Z M 100.964844 50.066406 "
       id="path3719" />
    <path
       style=" stroke:none;fill-rule:nonzero;fill:rgb(35.299683%,94.099426%,74.099731%);fill-opacity:1;"
       d="M 115.070313 214.984375 C 111.019531 214.554688 106.945313 213.84375 102.957031 212.878906 C 63.597656 203.355469 35.164063 169.84375 32.203125 129.484375 L 48.5625 128.289063 C 50.996094 161.507813 74.40625 189.097656 106.8125 196.941406 C 110.105469 197.734375 113.464844 198.320313 116.808594 198.675781 Z M 115.070313 214.984375 "
       id="path3721" />
    <path
       style=" stroke:none;fill-rule:nonzero;fill:rgb(35.299683%,94.099426%,74.099731%);fill-opacity:1;"
       d="M 161.777344 37.542969 L 155.261719 52.597656 C 151.234375 50.851563 147.027344 49.445313 142.75 48.410156 C 136.964844 47.011719 131.046875 46.285156 125.152344 46.25 L 125.246094 29.847656 C 132.40625 29.890625 139.59375 30.773438 146.605469 32.46875 C 151.789063 33.722656 156.894531 35.429688 161.777344 37.542969 "
       id="path3723" />
  </g>
</svg>
